<svg width="16" height="17" viewBox="0 0 16 17" fill="none" xmlns="http://www.w3.org/2000/svg">
  <rect y="0.5" width="16" height="16" rx="4" fill="#5A8228" />
  <path fill-rule="evenodd" clip-rule="evenodd" d="M3.4 6.4C4.55685 6.4 5.5 7.34315 5.5 8.5C5.5 9.65685 4.55685 10.6 3.4 10.6C2.24315 10.6 1.3 9.65685 1.3 8.5C1.3 7.34315 2.24315 6.4 3.4 6.4ZM3.4 7.45C2.82236 7.45 2.35 7.92236 2.35 8.5C2.35 9.07764 2.82236 9.55 3.4 9.55C3.97764 9.55 4.45 9.07764 4.45 8.5C4.45 7.92236 3.97764 7.45 3.4 7.45Z" fill="#F6F8F9" fill-opacity="0.95" />
  <path fill-rule="evenodd" clip-rule="evenodd" d="M6.35 6.55C6.35 6.43954 6.43954 6.35 6.55 6.35H7.7C9.04975 6.35 9.95 7.25025 9.95 8.6C9.95 9.94975 9.04975 10.85 7.7 10.85H6.55C6.43954 10.85 6.35 10.7605 6.35 10.65V6.55ZM7.4 7.4V9.8H7.7C8.42721 9.8 8.9 9.32721 8.9 8.6C8.9 7.87279 8.42721 7.4 7.7 7.4H7.4Z" fill="#F6F8F9" fill-opacity="0.95" />
  <path d="M3.1276 7.29055C3.1276 7.40788 3.16454 7.50782 3.23841 7.59038C3.31662 7.67294 3.41657 7.74681 3.53823 7.81199C3.6599 7.87282 3.79461 7.93366 3.94235 7.99449C4.09443 8.05533 4.24435 8.12485 4.39209 8.20307C4.53983 8.27694 4.67453 8.37036 4.7962 8.48334C4.91787 8.59197 5.01564 8.7245 5.08951 8.88093C5.16772 9.03302 5.20683 9.22204 5.20683 9.44799C5.20248 9.73478 5.13079 9.98029 4.99174 10.1845C4.85703 10.3887 4.67453 10.5474 4.44423 10.6603C4.21827 10.769 3.96625 10.8233 3.68815 10.8233C3.30576 10.8233 2.97986 10.7581 2.71046 10.6277C2.4915 10.5183 2.29407 10.3729 2.11817 10.1917C2.04938 10.1208 2.05711 10.008 2.12971 9.94104L2.52375 9.57761C2.60323 9.5043 2.72767 9.5154 2.80291 9.59304C2.90707 9.70052 3.01964 9.78905 3.14064 9.85862C3.31445 9.95856 3.49261 10.0085 3.67511 10.0085C3.80547 10.0085 3.9141 9.98681 4.00101 9.94336C4.08791 9.8999 4.15309 9.83907 4.19655 9.76085C4.24435 9.68264 4.26824 9.58921 4.26824 9.48058C4.26824 9.35891 4.23131 9.2568 4.15744 9.17424C4.08357 9.09168 3.98363 9.01781 3.85761 8.95263C3.73595 8.88745 3.60124 8.82444 3.4535 8.76361C3.30576 8.69843 3.15802 8.6289 3.01028 8.55503C2.86254 8.47682 2.72566 8.38557 2.59965 8.28128C2.47798 8.17265 2.38021 8.04012 2.30634 7.88369C2.23247 7.72726 2.19554 7.54041 2.19554 7.32314C2.19554 7.14064 2.2303 6.97117 2.29983 6.81474C2.3737 6.65397 2.47581 6.51274 2.60617 6.39108C2.73653 6.26941 2.89079 6.17381 3.06894 6.10429C3.25145 6.03476 3.45133 6 3.66859 6C4.01187 6 4.31387 6.06952 4.57459 6.20857C4.78684 6.31992 4.97681 6.46052 5.14448 6.63038C5.21466 6.70148 5.2066 6.81582 5.1325 6.88281L4.73378 7.24318C4.6546 7.31475 4.53206 7.30393 4.45898 7.22615C4.36258 7.12356 4.26206 7.0364 4.15744 6.96466C4.00535 6.86037 3.84458 6.80823 3.67511 6.80823C3.56648 6.80823 3.47088 6.82995 3.38832 6.8734C3.31011 6.91251 3.2471 6.969 3.1993 7.04287C3.1515 7.1124 3.1276 7.19496 3.1276 7.29055Z" transform="translate(8.55 0.27)" fill="#F6F8F9" fill-opacity="0.95" />
</svg>
