<svg width="32" height="32" viewBox="0 0 32 32" fill="none" xmlns="http://www.w3.org/2000/svg">
  <rect x="4.35" y="0.35" width="23.3" height="31.3" rx="3.20556" fill="white" />
  <rect x="4.35" y="0.35" width="23.3" height="31.3" rx="3.20556" stroke="#6E5BD4" stroke-width="0.7" />
  <rect x="4.35" y="0.35" width="23.3" height="31.3" rx="3.20556" stroke="#F6F8F9" stroke-opacity="0.8" stroke-width="0.7" />
  <path fill-rule="evenodd" clip-rule="evenodd" d="M7.11108 4C7.11108 3.50908 7.50905 3.11111 7.99997 3.11111H24C24.4909 3.11111 24.8889 3.50908 24.8889 4C24.8889 4.49092 24.4909 4.88889 24 4.88889H7.99997C7.50905 4.88889 7.11108 4.49092 7.11108 4Z" fill="#6E5BD4" />
  <path fill-rule="evenodd" clip-rule="evenodd" d="M7.11108 4C7.11108 3.50908 7.50905 3.11111 7.99997 3.11111H24C24.4909 3.11111 24.8889 3.50908 24.8889 4C24.8889 4.49092 24.4909 4.88889 24 4.88889H7.99997C7.50905 4.88889 7.11108 4.49092 7.11108 4Z" fill="#F6F8F9" fill-opacity="0.8" />
  <path fill-rule="evenodd" clip-rule="evenodd" d="M7.11108 7C7.11108 6.50908 7.50905 6.11111 7.99997 6.11111H24C24.4909 6.11111 24.8889 6.50908 24.8889 7C24.8889 7.49092 24.4909 7.88889 24 7.88889H7.99997C7.50905 7.88889 7.11108 7.49092 7.11108 7Z" fill="#6E5BD4" />
  <path fill-rule="evenodd" clip-rule="evenodd" d="M7.11108 7C7.11108 6.50908 7.50905 6.11111 7.99997 6.11111H24C24.4909 6.11111 24.8889 6.50908 24.8889 7C24.8889 7.49092 24.4909 7.88889 24 7.88889H7.99997C7.50905 7.88889 7.11108 7.49092 7.11108 7Z" fill="#F6F8F9" fill-opacity="0.8" />
  <path fill-rule="evenodd" clip-rule="evenodd" d="M7.11108 10C7.11108 9.50908 7.50905 9.11111 7.99997 9.11111H24C24.4909 9.11111 24.8889 9.50908 24.8889 10C24.8889 10.4909 24.4909 10.8889 24 10.8889H7.99997C7.50905 10.8889 7.11108 10.4909 7.11108 10Z" fill="#6E5BD4" />
  <path fill-rule="evenodd" clip-rule="evenodd" d="M7.11108 10C7.11108 9.50908 7.50905 9.11111 7.99997 9.11111H24C24.4909 9.11111 24.8889 9.50908 24.8889 10C24.8889 10.4909 24.4909 10.8889 24 10.8889H7.99997C7.50905 10.8889 7.11108 10.4909 7.11108 10Z" fill="#F6F8F9" fill-opacity="0.8" />
  <path fill-rule="evenodd" clip-rule="evenodd" d="M7.11108 13C7.11108 12.5091 7.50905 12.1111 7.99997 12.1111H24C24.4909 12.1111 24.8889 12.5091 24.8889 13C24.8889 13.4909 24.4909 13.8889 24 13.8889H7.99997C7.50905 13.8889 7.11108 13.4909 7.11108 13Z" fill="#6E5BD4" />
  <path fill-rule="evenodd" clip-rule="evenodd" d="M7.11108 13C7.11108 12.5091 7.50905 12.1111 7.99997 12.1111H24C24.4909 12.1111 24.8889 12.5091 24.8889 13C24.8889 13.4909 24.4909 13.8889 24 13.8889H7.99997C7.50905 13.8889 7.11108 13.4909 7.11108 13Z" fill="#F6F8F9" fill-opacity="0.8" />
  <path fill-rule="evenodd" clip-rule="evenodd" d="M7.11108 16C7.11108 15.5091 7.50905 15.1111 7.99997 15.1111H24C24.4909 15.1111 24.8889 15.5091 24.8889 16C24.8889 16.4909 24.4909 16.8889 24 16.8889H7.99997C7.50905 16.8889 7.11108 16.4909 7.11108 16Z" fill="#6E5BD4" />
  <path fill-rule="evenodd" clip-rule="evenodd" d="M7.11108 16C7.11108 15.5091 7.50905 15.1111 7.99997 15.1111H24C24.4909 15.1111 24.8889 15.5091 24.8889 16C24.8889 16.4909 24.4909 16.8889 24 16.8889H7.99997C7.50905 16.8889 7.11108 16.4909 7.11108 16Z" fill="#F6F8F9" fill-opacity="0.8" />
  <path fill-rule="evenodd" clip-rule="evenodd" d="M7.11108 19C7.11108 18.5091 7.50905 18.1111 7.99997 18.1111H24C24.4909 18.1111 24.8889 18.5091 24.8889 19C24.8889 19.4909 24.4909 19.8889 24 19.8889H7.99997C7.50905 19.8889 7.11108 19.4909 7.11108 19Z" fill="#6E5BD4" />
  <path fill-rule="evenodd" clip-rule="evenodd" d="M7.11108 19C7.11108 18.5091 7.50905 18.1111 7.99997 18.1111H24C24.4909 18.1111 24.8889 18.5091 24.8889 19C24.8889 19.4909 24.4909 19.8889 24 19.8889H7.99997C7.50905 19.8889 7.11108 19.4909 7.11108 19Z" fill="#F6F8F9" fill-opacity="0.8" />
  <path fill-rule="evenodd" clip-rule="evenodd" d="M7.11108 22C7.11108 21.5091 7.50905 21.1111 7.99997 21.1111H24C24.4909 21.1111 24.8889 21.5091 24.8889 22C24.8889 22.4909 24.4909 22.8889 24 22.8889H7.99997C7.50905 22.8889 7.11108 22.4909 7.11108 22Z" fill="#6E5BD4" />
  <path fill-rule="evenodd" clip-rule="evenodd" d="M7.11108 22C7.11108 21.5091 7.50905 21.1111 7.99997 21.1111H24C24.4909 21.1111 24.8889 21.5091 24.8889 22C24.8889 22.4909 24.4909 22.8889 24 22.8889H7.99997C7.50905 22.8889 7.11108 22.4909 7.11108 22Z" fill="#F6F8F9" fill-opacity="0.8" />
  <path fill-rule="evenodd" clip-rule="evenodd" d="M7.11108 25C7.11108 24.5091 7.50905 24.1111 7.99997 24.1111H24C24.4909 24.1111 24.8889 24.5091 24.8889 25C24.8889 25.4909 24.4909 25.8889 24 25.8889H7.99997C7.50905 25.8889 7.11108 25.4909 7.11108 25Z" fill="#6E5BD4" />
  <path fill-rule="evenodd" clip-rule="evenodd" d="M7.11108 25C7.11108 24.5091 7.50905 24.1111 7.99997 24.1111H24C24.4909 24.1111 24.8889 24.5091 24.8889 25C24.8889 25.4909 24.4909 25.8889 24 25.8889H7.99997C7.50905 25.8889 7.11108 25.4909 7.11108 25Z" fill="#F6F8F9" fill-opacity="0.8" />
  <path fill-rule="evenodd" clip-rule="evenodd" d="M7.11108 28C7.11108 27.5091 7.50905 27.1111 7.99997 27.1111H24C24.4909 27.1111 24.8889 27.5091 24.8889 28C24.8889 28.4909 24.4909 28.8889 24 28.8889H7.99997C7.50905 28.8889 7.11108 28.4909 7.11108 28Z" fill="#6E5BD4" />
  <path fill-rule="evenodd" clip-rule="evenodd" d="M7.11108 28C7.11108 27.5091 7.50905 27.1111 7.99997 27.1111H24C24.4909 27.1111 24.8889 27.5091 24.8889 28C24.8889 28.4909 24.4909 28.8889 24 28.8889H7.99997C7.50905 28.8889 7.11108 28.4909 7.11108 28Z" fill="#F6F8F9" fill-opacity="0.8" />
  <rect y="16" width="16" height="16" rx="4" fill="#6E5BD4" />
  <path fill-rule="evenodd" clip-rule="evenodd" d="M3.4 21.9C4.55685 21.9 5.5 22.8431 5.5 24C5.5 25.1568 4.55685 26.1 3.4 26.1C2.24315 26.1 1.3 25.1568 1.3 24C1.3 22.8431 2.24315 21.9 3.4 21.9ZM3.4 22.95C2.82236 22.95 2.35 23.4224 2.35 24C2.35 24.5776 2.82236 25.05 3.4 25.05C3.97764 25.05 4.45 24.5776 4.45 24C4.45 23.4224 3.97764 22.95 3.4 22.95Z" fill="#F6F8F9" fill-opacity="0.95" />
  <path fill-rule="evenodd" clip-rule="evenodd" d="M6.35 22.05C6.35 21.9395 6.43954 21.85 6.55 21.85H7.7C9.04975 21.85 9.95 22.7503 9.95 24.1C9.95 25.4497 9.04975 26.35 7.7 26.35H6.55C6.43954 26.35 6.35 26.2605 6.35 26.15V22.05ZM7.4 22.9V25.3H7.7C8.42721 25.3 8.9 24.8272 8.9 24.1C8.9 23.3728 8.42721 22.9 7.7 22.9H7.4Z" fill="#F6F8F9" fill-opacity="0.95" />
  <path d="M10.65 21.85C10.5395 21.85 10.45 21.9395 10.45 22.05V22.6C10.45 22.7105 10.5395 22.8 10.65 22.8H11.75C11.8052 22.8 11.85 22.8448 11.85 22.9V26.15C11.85 26.2605 11.9395 26.35 12.05 26.35H12.7C12.8105 26.35 12.9 26.2605 12.9 26.15V22.9C12.9 22.8448 12.9448 22.8 13 22.8H14.1C14.2105 22.8 14.3 22.7105 14.3 22.6V22.05C14.3 21.9395 14.2105 21.85 14.1 21.85H10.65Z" fill="#F6F8F9" fill-opacity="0.95" />
</svg>
