<svg width="16" height="17" viewBox="0 0 16 17" fill="none" xmlns="http://www.w3.org/2000/svg">
  <rect y="0.5" width="16" height="16" rx="4" fill="#AE6257" />
  <path fill-rule="evenodd" clip-rule="evenodd" d="M3.4 6.4C4.55685 6.4 5.5 7.34315 5.5 8.5C5.5 9.65685 4.55685 10.6 3.4 10.6C2.24315 10.6 1.3 9.65685 1.3 8.5C1.3 7.34315 2.24315 6.4 3.4 6.4ZM3.4 7.45C2.82236 7.45 2.35 7.92236 2.35 8.5C2.35 9.07764 2.82236 9.55 3.4 9.55C3.97764 9.55 4.45 9.07764 4.45 8.5C4.45 7.92236 3.97764 7.45 3.4 7.45Z" fill="#F6F8F9" fill-opacity="0.95" />
  <path fill-rule="evenodd" clip-rule="evenodd" d="M6.35 6.55C6.35 6.43954 6.43954 6.35 6.55 6.35H7.7C9.04975 6.35 9.95 7.25025 9.95 8.6C9.95 9.94975 9.04975 10.85 7.7 10.85H6.55C6.43954 10.85 6.35 10.7605 6.35 10.65V6.55ZM7.4 7.4V9.8H7.7C8.42721 9.8 8.9 9.32721 8.9 8.6C8.9 7.87279 8.42721 7.4 7.7 7.4H7.4Z" fill="#F6F8F9" fill-opacity="0.95" />
  <path fill-rule="evenodd" clip-rule="evenodd" d="M10.65 6.35C10.5395 6.35 10.45 6.43954 10.45 6.55V10.65C10.45 10.7605 10.5395 10.85 10.65 10.85H11.3C11.4105 10.85 11.5 10.7605 11.5 10.65V9.35H12.6C13.7105 9.35 14.3 8.66925 14.3 7.85C14.3 7.03075 13.7105 6.35 12.6 6.35H10.65ZM11.5 7.3V8.4H12.55C12.9984 8.4 13.25 8.16908 13.25 7.85C13.25 7.53092 12.9984 7.3 12.55 7.3H11.5Z" fill="#F6F8F9" fill-opacity="0.95" />
</svg>
