<svg width="32" height="32" viewBox="0 0 32 32" fill="none" xmlns="http://www.w3.org/2000/svg">
  <rect x="4.35" y="0.35" width="23.3" height="31.3" rx="3.20556" fill="white" />
  <rect x="4.35" y="0.35" width="23.3" height="31.3" rx="3.20556" stroke="#5A8228" stroke-width="0.7" />
  <rect x="4.35" y="0.35" width="23.3" height="31.3" rx="3.20556" stroke="#F6F8F9" stroke-opacity="0.8" stroke-width="0.7" />
  <path fill-rule="evenodd" clip-rule="evenodd" d="M7.11108 4C7.11108 3.50908 7.50905 3.11111 7.99997 3.11111H24C24.4909 3.11111 24.8889 3.50908 24.8889 4C24.8889 4.49092 24.4909 4.88889 24 4.88889H7.99997C7.50905 4.88889 7.11108 4.49092 7.11108 4Z" fill="#5A8228" />
  <path fill-rule="evenodd" clip-rule="evenodd" d="M7.11108 4C7.11108 3.50908 7.50905 3.11111 7.99997 3.11111H24C24.4909 3.11111 24.8889 3.50908 24.8889 4C24.8889 4.49092 24.4909 4.88889 24 4.88889H7.99997C7.50905 4.88889 7.11108 4.49092 7.11108 4Z" fill="#F6F8F9" fill-opacity="0.8" />
  <path fill-rule="evenodd" clip-rule="evenodd" d="M7.11108 7C7.11108 6.50908 7.50905 6.11111 7.99997 6.11111H24C24.4909 6.11111 24.8889 6.50908 24.8889 7C24.8889 7.49092 24.4909 7.88889 24 7.88889H7.99997C7.50905 7.88889 7.11108 7.49092 7.11108 7Z" fill="#5A8228" />
  <path fill-rule="evenodd" clip-rule="evenodd" d="M7.11108 7C7.11108 6.50908 7.50905 6.11111 7.99997 6.11111H24C24.4909 6.11111 24.8889 6.50908 24.8889 7C24.8889 7.49092 24.4909 7.88889 24 7.88889H7.99997C7.50905 7.88889 7.11108 7.49092 7.11108 7Z" fill="#F6F8F9" fill-opacity="0.8" />
  <path fill-rule="evenodd" clip-rule="evenodd" d="M7.11108 10C7.11108 9.50908 7.50905 9.11111 7.99997 9.11111H24C24.4909 9.11111 24.8889 9.50908 24.8889 10C24.8889 10.4909 24.4909 10.8889 24 10.8889H7.99997C7.50905 10.8889 7.11108 10.4909 7.11108 10Z" fill="#5A8228" />
  <path fill-rule="evenodd" clip-rule="evenodd" d="M7.11108 10C7.11108 9.50908 7.50905 9.11111 7.99997 9.11111H24C24.4909 9.11111 24.8889 9.50908 24.8889 10C24.8889 10.4909 24.4909 10.8889 24 10.8889H7.99997C7.50905 10.8889 7.11108 10.4909 7.11108 10Z" fill="#F6F8F9" fill-opacity="0.8" />
  <path fill-rule="evenodd" clip-rule="evenodd" d="M7.11108 13C7.11108 12.5091 7.50905 12.1111 7.99997 12.1111H24C24.4909 12.1111 24.8889 12.5091 24.8889 13C24.8889 13.4909 24.4909 13.8889 24 13.8889H7.99997C7.50905 13.8889 7.11108 13.4909 7.11108 13Z" fill="#5A8228" />
  <path fill-rule="evenodd" clip-rule="evenodd" d="M7.11108 13C7.11108 12.5091 7.50905 12.1111 7.99997 12.1111H24C24.4909 12.1111 24.8889 12.5091 24.8889 13C24.8889 13.4909 24.4909 13.8889 24 13.8889H7.99997C7.50905 13.8889 7.11108 13.4909 7.11108 13Z" fill="#F6F8F9" fill-opacity="0.8" />
  <path fill-rule="evenodd" clip-rule="evenodd" d="M7.11108 16C7.11108 15.5091 7.50905 15.1111 7.99997 15.1111H24C24.4909 15.1111 24.8889 15.5091 24.8889 16C24.8889 16.4909 24.4909 16.8889 24 16.8889H7.99997C7.50905 16.8889 7.11108 16.4909 7.11108 16Z" fill="#5A8228" />
  <path fill-rule="evenodd" clip-rule="evenodd" d="M7.11108 16C7.11108 15.5091 7.50905 15.1111 7.99997 15.1111H24C24.4909 15.1111 24.8889 15.5091 24.8889 16C24.8889 16.4909 24.4909 16.8889 24 16.8889H7.99997C7.50905 16.8889 7.11108 16.4909 7.11108 16Z" fill="#F6F8F9" fill-opacity="0.8" />
  <path fill-rule="evenodd" clip-rule="evenodd" d="M7.11108 19C7.11108 18.5091 7.50905 18.1111 7.99997 18.1111H24C24.4909 18.1111 24.8889 18.5091 24.8889 19C24.8889 19.4909 24.4909 19.8889 24 19.8889H7.99997C7.50905 19.8889 7.11108 19.4909 7.11108 19Z" fill="#5A8228" />
  <path fill-rule="evenodd" clip-rule="evenodd" d="M7.11108 19C7.11108 18.5091 7.50905 18.1111 7.99997 18.1111H24C24.4909 18.1111 24.8889 18.5091 24.8889 19C24.8889 19.4909 24.4909 19.8889 24 19.8889H7.99997C7.50905 19.8889 7.11108 19.4909 7.11108 19Z" fill="#F6F8F9" fill-opacity="0.8" />
  <path fill-rule="evenodd" clip-rule="evenodd" d="M7.11108 22C7.11108 21.5091 7.50905 21.1111 7.99997 21.1111H24C24.4909 21.1111 24.8889 21.5091 24.8889 22C24.8889 22.4909 24.4909 22.8889 24 22.8889H7.99997C7.50905 22.8889 7.11108 22.4909 7.11108 22Z" fill="#5A8228" />
  <path fill-rule="evenodd" clip-rule="evenodd" d="M7.11108 22C7.11108 21.5091 7.50905 21.1111 7.99997 21.1111H24C24.4909 21.1111 24.8889 21.5091 24.8889 22C24.8889 22.4909 24.4909 22.8889 24 22.8889H7.99997C7.50905 22.8889 7.11108 22.4909 7.11108 22Z" fill="#F6F8F9" fill-opacity="0.8" />
  <path fill-rule="evenodd" clip-rule="evenodd" d="M7.11108 25C7.11108 24.5091 7.50905 24.1111 7.99997 24.1111H24C24.4909 24.1111 24.8889 24.5091 24.8889 25C24.8889 25.4909 24.4909 25.8889 24 25.8889H7.99997C7.50905 25.8889 7.11108 25.4909 7.11108 25Z" fill="#5A8228" />
  <path fill-rule="evenodd" clip-rule="evenodd" d="M7.11108 25C7.11108 24.5091 7.50905 24.1111 7.99997 24.1111H24C24.4909 24.1111 24.8889 24.5091 24.8889 25C24.8889 25.4909 24.4909 25.8889 24 25.8889H7.99997C7.50905 25.8889 7.11108 25.4909 7.11108 25Z" fill="#F6F8F9" fill-opacity="0.8" />
  <path fill-rule="evenodd" clip-rule="evenodd" d="M7.11108 28C7.11108 27.5091 7.50905 27.1111 7.99997 27.1111H24C24.4909 27.1111 24.8889 27.5091 24.8889 28C24.8889 28.4909 24.4909 28.8889 24 28.8889H7.99997C7.50905 28.8889 7.11108 28.4909 7.11108 28Z" fill="#5A8228" />
  <path fill-rule="evenodd" clip-rule="evenodd" d="M7.11108 28C7.11108 27.5091 7.50905 27.1111 7.99997 27.1111H24C24.4909 27.1111 24.8889 27.5091 24.8889 28C24.8889 28.4909 24.4909 28.8889 24 28.8889H7.99997C7.50905 28.8889 7.11108 28.4909 7.11108 28Z" fill="#F6F8F9" fill-opacity="0.8" />
  <rect y="16" width="16" height="16" rx="4" fill="#5A8228" />
  <path fill-rule="evenodd" clip-rule="evenodd" d="M3.4 21.9C4.55685 21.9 5.5 22.8431 5.5 24C5.5 25.1568 4.55685 26.1 3.4 26.1C2.24315 26.1 1.3 25.1568 1.3 24C1.3 22.8431 2.24315 21.9 3.4 21.9ZM3.4 22.95C2.82236 22.95 2.35 23.4224 2.35 24C2.35 24.5776 2.82236 25.05 3.4 25.05C3.97764 25.05 4.45 24.5776 4.45 24C4.45 23.4224 3.97764 22.95 3.4 22.95Z" fill="#F6F8F9" fill-opacity="0.95" />
  <path fill-rule="evenodd" clip-rule="evenodd" d="M6.35 22.05C6.35 21.9395 6.43954 21.85 6.55 21.85H7.7C9.04975 21.85 9.95 22.7503 9.95 24.1C9.95 25.4497 9.04975 26.35 7.7 26.35H6.55C6.43954 26.35 6.35 26.2605 6.35 26.15V22.05ZM7.4 22.9V25.3H7.7C8.42721 25.3 8.9 24.8272 8.9 24.1C8.9 23.3728 8.42721 22.9 7.7 22.9H7.4Z" fill="#F6F8F9" fill-opacity="0.95" />
  <path d="M3.1276 22.7906C3.1276 22.9079 3.16454 23.0078 3.23841 23.0904C3.31662 23.1729 3.41657 23.2468 3.53823 23.312C3.6599 23.3728 3.79461 23.4337 3.94235 23.4945C4.09443 23.5553 4.24435 23.6249 4.39209 23.7031C4.53983 23.7769 4.67453 23.8704 4.7962 23.9833C4.91787 24.092 5.01564 24.2245 5.08951 24.3809C5.16772 24.533 5.20683 24.722 5.20683 24.948C5.20248 25.2348 5.13079 25.4803 4.99174 25.6845C4.85703 25.8887 4.67453 26.0474 4.44423 26.1603C4.21827 26.269 3.96625 26.3233 3.68815 26.3233C3.30576 26.3233 2.97986 26.2581 2.71046 26.1277C2.4915 26.0183 2.29407 25.8729 2.11817 25.6917C2.04938 25.6208 2.05711 25.508 2.12971 25.441L2.52375 25.0776C2.60323 25.0043 2.72767 25.0154 2.80291 25.093C2.90707 25.2005 3.01964 25.289 3.14064 25.3586C3.31445 25.4586 3.49261 25.5085 3.67511 25.5085C3.80547 25.5085 3.9141 25.4868 4.00101 25.4434C4.08791 25.3999 4.15309 25.3391 4.19655 25.2609C4.24435 25.1826 4.26824 25.0892 4.26824 24.9806C4.26824 24.8589 4.23131 24.7568 4.15744 24.6742C4.08357 24.5917 3.98363 24.5178 3.85761 24.4526C3.73595 24.3874 3.60124 24.3244 3.4535 24.2636C3.30576 24.1984 3.15802 24.1289 3.01028 24.055C2.86254 23.9768 2.72566 23.8856 2.59965 23.7813C2.47798 23.6726 2.38021 23.5401 2.30634 23.3837C2.23247 23.2273 2.19554 23.0404 2.19554 22.8231C2.19554 22.6406 2.2303 22.4712 2.29983 22.3147C2.3737 22.154 2.47581 22.0127 2.60617 21.8911C2.73653 21.7694 2.89079 21.6738 3.06894 21.6043C3.25145 21.5348 3.45133 21.5 3.66859 21.5C4.01187 21.5 4.31387 21.5695 4.57459 21.7086C4.78684 21.8199 4.97681 21.9605 5.14448 22.1304C5.21466 22.2015 5.2066 22.3158 5.1325 22.3828L4.73378 22.7432C4.6546 22.8147 4.53206 22.8039 4.45898 22.7262C4.36258 22.6236 4.26206 22.5364 4.15744 22.4647C4.00535 22.3604 3.84458 22.3082 3.67511 22.3082C3.56648 22.3082 3.47088 22.33 3.38832 22.3734C3.31011 22.4125 3.2471 22.469 3.1993 22.5429C3.1515 22.6124 3.1276 22.695 3.1276 22.7906Z" transform="translate(8.55 0.27)" fill="#F6F8F9" fill-opacity="0.95" />
</svg>
